# xmcd CD database file
#
# Track frame offsets:
#	150
#	13496
#	28013
#	45480
#	60299
#	75557
#	106959
#
# Disc length: 1887 seconds
#
# Revision: 1
# Processed by: cddbd v1.5.1PL2 Copyright (c) Steve Scherf et al.
# Submitted via: CDex 1.51
#
DISCID=4c075d07
DTITLE=Janine Gobeil - Janine Gobeil
DYEAR=2006
DGENRE=Country
TTITLE0=Perfect Side of Me
TTITLE1=Quick and Witty
TTITLE2=Wander
TTITLE3=OK
TTITLE4=Regrets
TTITLE5=Troll
TTITLE6=Regrets Video
EXTD=YEAR: 2006
EXTT0=
EXTT1=
EXTT2=
EXTT3=
EXTT4=
EXTT5=
EXTT6=
PLAYORDER=
